<?xml version="1.0" encoding="UTF-8"?>
<svg xmlns="http://www.w3.org/2000/svg" version="1.1" viewBox="0 0 360 360">
  <defs>
    <style>
      .cls-1 {
        fill: #fff;
      }

      .cls-1, .cls-2 {
        fill-rule: evenodd;
      }

      .cls-2 {
        fill: #00859b;
      }

      .cls-3 {
        fill: #ef7d00;
      }
    </style>
  </defs>
  <!-- Generator: Adobe Illustrator 28.7.1, SVG Export Plug-In . SVG Version: 1.2.0 Build 142)  -->
  <g>
    <g id="Layer_1">
      <g>
        <path class="cls-2" d="M254.12,179.11c.09-1.11,0-2.75-1-2.12-.92.58-3.51,4.95-1.1,5.21,1.04.11,2-1.98,2.09-3.09M234.71,221.11c3.94-.6,14.38-2.87,15.05-8.22-5.03,3-20.65,7.29-48.14,5.26-9.41-.7-33.2-4.35-51.88-9.6-9.54-2.68-18.1-5.36-22.19-10.14-4.35-5.07-6.25-8.56-6.7-12.39-.77-6.51-.37-4.58.01-12.3-.96,1.64-7.63,10.25-4.81,13.27.95,1.02,2.57.24,2.2-2.31.88,1.25.8,2.63-.35,4.22,1.46,4.38,2.62,7.32,7.12,11.19,3.43,2.96,7.41,5.91,12.94,8.19.31.13.35.47.36.85,33.49,10.22,65.09,14.72,96.38,11.99ZM115.72,168.32c.84-2.21-.64-2.61-1.38-2.76-.74-.16-2.5,1.45-2.99.47-.49-.98,1.67-2.72,1.91-3.24.24-.51.01-2.41.1-2.84.09-.43,2.49-3.01,3-3.81,2.42-3.72,2.67-5.78,2.25-8.7-.15-1-.72-1.8-.63-2.52.16-1.38,1.79-2.57,2.04-3.45.47-1.65-.29-4.12-.38-6.49-.07-1.97.13-4,.89-5.54,1.41,2.58,2.01,4.82,3.26,6.17,1.67,1.79,5.11,2.52,6.23,3.41,2.91,2.32,3.64,8.5,1.85,13.18-1.21,3.18-2.99,4.71-4.65,7.92-2,3.88-3.14,7.92-4.14,12.52-1.09,4.97-1.89,10.54.29,15.87,2.9,7.1,10.48,13.44,20.66,16.38,10.17,2.94,29.57,7.56,46.54,9.76,19.18,2.48,41.49,4.4,52.15-7.08,2.63-2.83,1.57-7.83,2.05-13.8.47-5.97.83-14.23,5.92-18.37,1.99-1.62,3.31-1.63,4.39-.99,2.46,1.48,2.65,7.04-.52,9.4-1.05.78-2.88.26-4.56.13-.58,4.09-1.23,8.03-1,11.52.36,5.38,4.35,12.38,4.38,17.71.03,5.81-2.79,10.61-6.71,13.31-.26.18-1.57-.43-3.97-1.49-8.88,6.3-19.44,15.83-30.06,16.3-9.59.42-25.23-13.57-31.62-15.13-21.21-5.2-19.72,14.24-41.29,9.32-.31-.07-.62-.15-.94-.25-5.63-2.7-9.93-5.76-12.28-9.03-7.93-1.55-12.57-2.99-15.26-8.76-1.9-4.08-3.72-11.75-2.66-19.41.23-1.66,1.48-7.09,1.39-9.34-.09-2.24-1.94-1.13-1.88-2.94.04-1.05.33-2.41.82-3.97.36-1.13-.06-2.62.51-3.9.4-.9,2.69-.7,3.46-1.89,1.84-2.82,2.23-6.12,2.81-7.68Z"/>
        <path class="cls-1" d="M121.42,166.63c-.8.73-1.91.74-2.74,1.9-1.24,1.72-1.25,3.67-2.42,5.43-1.17,1.75-3.5,3.31-4.17,5.35-1.26,1.03-2.05,3.96-1.56,6.57.3,1.62,1.68,3.32,1.99,3.73.83,1.08-3.01,12.03-.52,22.18,1.87,7.64,7.59,11.31,7.64,10.87.05-.43-5.08-7.61-5.26-14.17-.26-8.99,2.27-17.86,1.59-18.55-1.17-1.2-2.96-3.48-2.3-6.44.66-2.94,2.67-4.73,4.26-7.08,1.16-1.71,1.86-4.95,2.94-6.78.45-.77,1.56-.44,1.85-1.01,1.96-3.89.79-3.89-1.28-1.99"/>
        <path class="cls-2" d="M274.65,95.85c-46.54,17.66-69.84,43.39-68.05,70.77.94,14.46,1.79,24.87,21.13,42.61-3.16-1.26-11.45-8.28-18.7-17.44-27.25-12.57-50.7-15.04-57.72-6.57,2.4,3.65,11.82,7.1,18.85,11.86-1.46,1.27-.52,1.98-2.63,1.74-13.05-5.73-28.34-17.71-33.39-32.9-3.86-11.61-7.27-24.09-5.85-35.96,1.26-10.47,6.72-20.44,12.76-29.39-5.16-.81-7.61-.61-7-1.72,44.69-.89,95.91-2.1,140.6-2.99"/>
        <path class="cls-1" d="M122.04,135.86c.43,1.61,1.63,2.87,1.29,4.84-.34,1.97-2.02,4.88-2.65,6.49-.62,1.61-1.13,2.08-1.05,3.06.07.97,1.96,1.34,1.26,3.05-.17.41-.75.46-.99,1.01-.31.7-.32,1.93-.93,2.78-.76,1.06-3.08,3.47-4.16,4.86-.44.56,1.09.82,1.98.24.88-.58,2.09-1.7,3.11-2.85,1.02-1.14,2.46-3.44,3-4.02.54-.58.52-1.17.43-1.69-.09-.52-.5-1.46-.6-2.12-.1-.65-.69-3.21-.45-4.49.5-2.63,3.35-3.17,3.79-5.78,1.2,2.65,1.31,5.85,1.13,6.66-.3,1.39-2.51,3.27-2.75,4.17-.25.9.34,1.16,0,1.81-.34.65-1.23,1.13-1.55,1.43-.32.3-.6,1.77,0,1.72.6-.04,2.92-1.37,3.01-1.58.09-.21.84-.71.52-1.25-.32-.54-1.98-.51-1.98-1.23s1.97-.94,2.6-.76c.63.18.98,2.45,1.83,1.25.85-1.2.95-4.22,1.33-6.31s.31-3.98-.34-5.54c-.28-.69-1.49-2.19-2.32-2.66-1.06-.59-1.81-.1-2.56-.65-1.32-.97-1.44-1.6-2.96-2.47"/>
        <polygon class="cls-2" points="194.01 66.25 190.98 85.69 187.4 88.11 145.91 98.6 187.04 89.87 179.37 97.89 189.19 91.29 188.5 97.69 193.52 97.58 193.66 90.37 204.35 97.34 198.14 90.36 273.34 95.87 195.45 87.47 194.02 84.49 195.81 66.39 194.01 66.25"/>
        <polygon class="cls-2" points="174.56 213.11 179.47 180.24 183.4 181.35 179.47 214.02 174.56 213.11"/>
        <path class="cls-2" d="M238.33,211.19c-9.58-23.31-19.16-46.62-28.74-69.93.54-.61,1.07-1.23,1.61-1.84,8.16,22.7,18.17,46.4,30.38,71.29-1.08.16-2.16.32-3.24.48"/>
        <path class="cls-1" d="M239.87,97.75c-19.56,13.93-56.16,39.81-39.41,88.01-3.7-1.83-7.05-1.5-10.75-3.33-11.94-17.29-10.91-36.24.36-53.67,6.99-10.81,19.73-20.62,30.27-30.35,7.29-.28,8.8-.37,19.53-.66"/>
        <path class="cls-1" d="M204.3,98.12c-8.46,6.03-16.2,15.27-22.61,25.26-8.41,13.09-13.46,29.02-3.96,56.36-3.7-1.01-5.31-.88-8.96-2.12-11.94-17.29-9.75-35.52,1.52-52.95,6.99-10.81,10.34-16.62,20.87-26.34,7.29-.28,2.41.09,13.15-.2"/>
        <path class="cls-1" d="M180.08,99.17c-10.13,7.56-18.49,17.38-23.53,34.37-3.34,11.25-4.73,26.1,5.25,43.64-2.1.5-3.66.88-5.74,1.77-14.84-15.84-13.86-38.12-5.83-53.92,4.98-9.8,8.67-16.76,17.35-25.55,7.14-.21,1.97-.13,12.51-.32"/>
        <path class="cls-1" d="M160.36,100.03c-10.13,7.56-13.33,17.39-18.38,34.37-3.34,11.25-2.57,32,10.36,46.36-2.1.5-1.51,1.04-3.6,1.94-14.84-15.84-18.44-42.43-13.26-59.68,3.2-10.65,5.9-13.92,14.58-22.71,7.14-.21-.24-.09,10.3-.28"/>
        <path class="cls-3" d="M274.1,280.77v-9.75l8.57,7.88v-10.01l-8.57-7.33v-8.03l10.51-10.01,5.87,5.8-4.58,4.49-4.79-4.64v8.68l8.53,7.66v9.46l-5.97,5.79h-9.57ZM253.25,280.77v-25.66l10.9-11.14,7.36,10.52-11.25,13.22v6.59h9.75l-6.08,6.46h-10.67ZM260.25,265.45l5.72-6.74-5.72-8.65v15.39ZM240.28,280.77v-46.18l6.89-7.26v46.98h4.29l-5.09,6.46h-6.09ZM215.17,280.77v-15.31l11.95-10.81-4.94-5.18v5.47h-7.37v-1.25l11.8-9.71,7.26,7.51v22.83h4.44l-5.09,6.46h-6.09v-5.39l-6.16,5.39h-5.79ZM222.17,274.32h4.94v-17.61l-4.94,4.58v13.04ZM195.49,280.77v-9.75l8.57,7.88v-10.01l-8.57-7.33v-8.03l10.51-10.01,5.87,5.8-4.58,4.49-4.79-4.64v8.68l8.53,7.66v9.46l-5.97,5.79h-9.57ZM157.41,280.77v-29.14l6.97-7.66,5.49,4.9v-14.44l6.82-7.04v46.91h4.29l-5.2,6.46h-5.91v-5.66l-6.48,5.66h-5.98ZM164.37,274.32h5.49v-23.41l-1.75-1.51-3.74,4.22v20.7ZM138.28,280.77v-29.5l6.89-7.29v7.99l9.38-8.22v12.53l-6.15,4.44v-9.53l-3.23,2.64v20.48h4.29l-5.1,6.46h-6.08ZM114.38,280.77v-25.72l10.9-11.07,8.06,7.73v18.18l-11.3,10.88h-7.66ZM121.39,274.32h5.32v-19.45l-5.32-5.02v24.47ZM102.32,289.87v-38.6l6.89-7.29v41.16l-8.03,8.17-1.06-1.06,2.2-2.38ZM102.32,235.95l6.89-7.26v8.61l-6.89,7.29v-8.64ZM77.91,293.75v-36.76h-6.97l6.97-7.14v-9.9l12.24-12.17h11.18l-4.84,7.01h-1.93v15.06h5.04l-5.04,7.07v9.46l.58,1.03-1.28,1.9-1.25-1.79.74-1.14v-9.38h-4.29v26.65l-11.15,10.11ZM85.21,285.35l2.64-2.34v-48.23h-2.64v50.57ZM89.06,249.85h4.29v-15.06h-4.29v15.06ZM77.84,236.1l-8.32-8.32h16.75l-8.43,8.32Z"/>
      </g>
    </g>
  </g>
</svg>