<?xml version="1.0" standalone="no"?>
<!DOCTYPE svg PUBLIC "-//W3C//DTD SVG 20010904//EN"
 "http://www.w3.org/TR/2001/REC-SVG-20010904/DTD/svg10.dtd">
<svg version="1.0" xmlns="http://www.w3.org/2000/svg"
 width="736.000000pt" height="754.000000pt" viewBox="0 0 736.000000 754.000000"
 preserveAspectRatio="xMidYMid meet">

<g transform="translate(0.000000,754.000000) scale(0.100000,-0.100000)"
fill="#000000" stroke="none">
<path d="M4135 7508 c-6 -27 -95 -596 -95 -609 0 -5 -30 -29 -67 -53 -66 -42
-84 -47 -600 -177 -293 -74 -529 -135 -525 -137 4 -1 241 47 526 108 286 61
520 109 522 107 2 -2 -49 -59 -114 -127 l-117 -124 153 103 c85 56 155 101
157 99 1 -2 -2 -49 -8 -105 l-10 -103 -51 0 c-28 -1 -121 -3 -206 -6 -85 -2
-467 -11 -849 -19 -382 -8 -697 -17 -699 -20 -12 -11 11 -17 114 -31 59 -8
108 -15 110 -16 1 -2 -39 -68 -88 -148 -224 -362 -322 -638 -335 -947 -3 -79
-10 -143 -15 -143 -20 0 -105 50 -130 77 -15 15 -45 66 -66 113 l-40 85 -12
-30 c-15 -36 -18 -161 -6 -272 l9 -82 -38 -55 c-32 -46 -36 -60 -31 -88 4 -18
10 -70 13 -116 5 -79 3 -86 -29 -155 -19 -39 -60 -103 -90 -141 -51 -64 -56
-73 -54 -117 1 -41 -3 -52 -31 -81 -32 -33 -44 -78 -21 -78 6 0 26 5 43 11 43
16 83 5 91 -25 8 -32 -50 -231 -84 -285 -21 -34 -38 -48 -79 -63 l-52 -19 -6
-57 c-3 -31 -12 -85 -20 -119 -22 -91 -20 -108 15 -133 27 -19 30 -27 30 -75
0 -30 -9 -101 -21 -157 -26 -129 -36 -357 -20 -468 25 -169 74 -309 140 -398
60 -81 192 -146 376 -183 54 -11 67 -19 135 -84 82 -78 154 -130 270 -193 122
-67 310 -90 465 -57 93 20 186 67 325 165 203 144 298 181 465 181 198 0 266
-26 589 -229 463 -291 612 -338 851 -267 172 50 334 145 650 379 96 72 176
125 185 122 8 -2 39 -14 69 -26 l54 -21 67 68 c110 113 156 238 147 398 -4 75
-15 122 -66 278 -33 103 -65 220 -69 260 -11 82 1 255 24 380 5 27 7 27 79 27
71 0 74 1 103 35 71 80 69 217 -3 273 -15 12 -40 22 -55 22 -42 0 -120 -60
-165 -126 -81 -118 -111 -264 -125 -622 -12 -277 -22 -321 -89 -386 l-39 -39
-35 69 c-52 104 -239 505 -332 714 -176 393 -326 757 -496 1200 l-97 255 25
45 c188 332 480 626 898 904 307 205 582 348 985 512 85 35 149 64 141 64 -74
0 -2393 -50 -2508 -55 l-153 -5 0 120 c0 66 3 120 8 120 4 0 16 -6 27 -14 11
-7 87 -57 168 -110 l149 -97 -96 107 c-53 59 -96 111 -96 115 0 4 17 5 38 3
59 -7 2089 -154 2109 -153 10 1 -490 56 -1110 124 -620 67 -1129 124 -1131
126 -2 2 -14 26 -28 52 l-24 48 28 272 c34 345 34 327 3 327 -17 0 -26 -7 -30
-22z m1484 -1050 c-645 -462 -993 -824 -1205 -1253 -225 -455 -260 -958 -104
-1491 18 -60 35 -117 38 -128 3 -13 1 -17 -9 -13 -34 14 -120 39 -195 56 -132
32 -148 42 -198 118 -106 165 -191 383 -222 571 -24 150 -15 407 19 552 30
127 84 273 144 394 148 295 328 502 808 929 149 132 280 249 292 260 20 18 42
21 190 27 93 4 240 7 327 8 l160 2 -45 -32z m-1145 14 c-5 -5 -34 -28 -64 -52
-237 -191 -445 -428 -658 -752 -187 -286 -279 -528 -312 -823 -30 -274 13
-610 125 -962 19 -59 32 -109 30 -111 -4 -5 -200 37 -257 55 -44 13 -51 21
-98 98 -132 218 -197 429 -207 670 -11 272 51 523 201 811 75 142 292 481 410
638 98 130 258 309 342 383 l59 52 219 1 c121 0 216 -4 210 -8z m-804 -31 c0
-4 -28 -30 -62 -57 -382 -298 -644 -740 -758 -1279 -27 -130 -38 -403 -21
-539 26 -202 87 -398 188 -600 29 -60 53 -109 51 -111 -8 -5 -178 -55 -189
-55 -8 0 -37 28 -65 63 -146 178 -242 381 -296 625 -18 81 -22 130 -22 302 -1
175 3 222 22 320 35 175 96 345 190 530 164 323 307 539 473 714 l81 85 146 4
c81 1 173 4 205 5 31 1 57 -2 57 -7z m-651 -28 c0 -5 -32 -34 -70 -66 -200
-168 -329 -407 -475 -881 -99 -324 -108 -373 -108 -616 1 -165 5 -228 22 -322
51 -276 161 -529 317 -723 36 -44 51 -71 43 -74 -7 -2 -35 -17 -62 -34 l-49
-31 -49 54 c-158 177 -306 463 -383 744 -56 207 -77 347 -82 572 -8 293 15
462 96 703 74 221 147 340 336 545 l115 125 78 4 c162 7 272 7 271 0z m-1209
-1228 c36 -32 59 -45 80 -45 38 0 97 -51 121 -105 11 -24 19 -64 19 -100 0
-74 -25 -243 -41 -278 -15 -34 -42 -35 -57 -2 -12 25 -41 32 -76 19 -25 -9
-19 -24 14 -35 52 -19 31 -63 -49 -104 -27 -13 -39 -15 -53 -6 -14 9 -19 7
-27 -7 -19 -35 -91 -116 -132 -149 -40 -32 -91 -44 -103 -24 -3 4 30 50 74
101 58 68 80 102 85 130 4 21 15 46 26 56 24 22 24 45 -1 77 -11 14 -20 35
-20 48 0 12 25 78 56 147 68 150 73 179 45 252 -33 86 -31 87 39 25z m3340
-1345 c244 -591 445 -1084 447 -1096 4 -16 -7 -26 -54 -52 -276 -147 -702
-177 -1380 -96 -235 27 -489 67 -499 77 -8 7 107 982 117 998 13 22 426 -114
706 -232 l142 -61 73 -86 c146 -175 385 -397 513 -477 17 -10 -21 33 -84 96
-327 326 -485 595 -541 924 -49 287 -51 594 -6 785 24 103 57 205 91 285 13
29 19 35 25 25 4 -8 207 -499 450 -1090z m-3086 680 c76 -286 163 -492 278
-655 80 -114 314 -350 439 -443 169 -126 443 -282 495 -282 14 0 31 12 44 30
l21 29 -38 24 c-46 29 -152 89 -340 192 -80 44 -165 99 -195 126 l-53 49 40
36 c115 103 344 150 606 125 111 -10 277 -36 284 -43 4 -4 -145 -1001 -150
-1006 -15 -15 -828 175 -1049 245 -323 102 -578 320 -668 573 -20 58 -23 83
-23 220 1 134 4 171 29 275 37 157 70 263 112 355 42 90 134 234 144 223 4 -4
14 -37 24 -73z m-254 -287 c-1 -34 -39 -103 -62 -112 -33 -13 -41 -24 -82
-131 -24 -61 -56 -122 -92 -170 -122 -164 -131 -236 -48 -351 l34 -47 -26
-178 c-21 -136 -27 -220 -28 -349 -1 -162 1 -174 27 -250 16 -44 53 -127 83
-184 30 -57 53 -108 52 -113 -6 -16 -85 49 -129 104 -57 72 -115 197 -135 293
-23 106 -22 334 0 475 33 201 33 208 -5 268 -38 62 -50 153 -29 218 18 54 72
134 140 210 43 47 64 81 80 127 31 92 42 107 116 158 74 51 104 60 104 32z
m-104 -460 c-1 -124 4 -208 12 -248 38 -169 208 -399 362 -489 270 -158 1050
-360 1859 -481 647 -96 1234 -96 1694 1 113 24 261 70 320 100 25 13 27 13 27
-4 0 -10 -11 -33 -25 -52 -79 -106 -299 -188 -568 -210 -667 -53 -1462 10
-2222 176 -351 77 -875 221 -875 240 0 6 -39 30 -87 53 -163 78 -358 223 -453
336 -46 55 -93 142 -120 221 -15 43 -16 54 -4 75 7 13 13 42 13 64 l-1 40 -12
-33 c-18 -50 -40 -59 -72 -27 -23 23 -26 33 -22 79 5 62 49 160 120 269 28 42
52 77 53 77 1 0 2 -84 1 -187z m4420 71 c15 -60 -21 -146 -64 -152 -48 -7 -47
62 2 133 35 52 53 57 62 19z"/>
<path d="M1881 5022 c-1 -7 -25 -39 -55 -71 -36 -39 -57 -72 -61 -95 -7 -37 6
-129 28 -204 11 -37 15 -41 26 -29 6 8 9 26 6 39 -5 18 6 40 46 93 l51 70 -6
66 c-5 58 -34 163 -35 131z"/>
<path d="M6493 6573 c9 -2 23 -2 30 0 6 3 -1 5 -18 5 -16 0 -22 -2 -12 -5z"/>
<path d="M2808 6523 c7 -3 16 -2 19 1 4 3 -2 6 -13 5 -11 0 -14 -3 -6 -6z"/>
</g>
</svg>
